<svg width="795" height="875" viewBox="0 0 795 875" fill="none" xmlns="http://www.w3.org/2000/svg">
<path d="M542.654 40.8485H387.481V196.022H542.654V40.8485Z" stroke="#E1E5F0" stroke-width="4.28182"/>
<path d="M394.075 34.1689H380.801V47.4426H394.075V34.1689Z" fill="#E1E5F0"/>
<path d="M394.075 189.428H380.801V202.701H394.075V189.428Z" fill="#7C7C7C"/>
<path d="M549.333 34.1689H536.06V47.4426H549.333V34.1689Z" fill="#CCF2FF"/>
<path d="M549.333 189.428H536.06V202.701H549.333V189.428Z" fill="#CCF2FF"/>
<path d="M568.944 94.9707H494.526C488.874 94.9707 484.25 90.3464 484.25 84.6944V10.2764C484.25 4.62436 488.874 0 494.526 0H568.944C574.596 0 579.22 4.62436 579.22 10.2764V84.6944C579.22 90.3464 574.596 94.9707 568.944 94.9707Z" fill="#E1E5F0"/>
<path d="M556.612 46.3051V45.0447C556.612 43.1529 558.146 41.6193 560.038 41.6193C561.93 41.6193 563.463 43.1529 563.463 45.0447V68.3378C563.463 70.2297 561.93 71.7633 560.038 71.7633C558.613 71.7633 557.392 70.8935 556.875 69.656C554.762 70.9901 552.263 71.7633 549.59 71.7633C542.046 71.7633 535.888 65.6053 535.888 58.0615C535.888 50.5176 542.046 44.3597 549.59 44.3597C552.153 44.3597 554.556 45.0705 556.612 46.3051ZM513.162 45.3017H522.194L517.429 28.81L513.162 45.3017ZM511.39 52.1526L507.091 68.7677C506.617 70.5992 504.748 71.6998 502.917 71.2259C501.085 70.7521 499.985 68.8832 500.458 67.0517L511.254 25.3282C512.908 19.0767 521.639 18.9994 523.508 25.1683L535.582 66.9588C536.108 68.7763 535.06 70.6754 533.242 71.2005C531.425 71.7256 529.526 70.678 529.001 68.8605L524.173 52.1526H511.39ZM549.59 64.9124C553.35 64.9124 556.441 61.8217 556.441 58.0615C556.441 54.3013 553.35 51.2106 549.59 51.2106C545.83 51.2106 542.739 54.3013 542.739 58.0615C542.739 61.8217 545.83 64.9124 549.59 64.9124Z" fill="#F2F6FB"/>
<path d="M530.266 326.022L474.03 289.793C473.279 290.316 473.279 290.316 472.603 290.914L493.626 354.184C493.626 354.184 501.885 353.063 508.267 349.478L517.802 361.728L531.692 351.046L522.157 338.721C524.86 334.463 527.563 330.205 530.266 326.022Z" fill="#E1E5F0"/>
<path d="M484.592 131.363C484.592 126.635 488.428 122.803 493.153 122.803H571.765L603.627 154.317V253.827C603.627 258.556 599.801 262.39 595.066 262.39H493.153C488.425 262.39 484.592 258.547 484.592 253.829V131.363Z" fill="#F2F6FB"/>
<path d="M545.187 217.118H508.369C507.708 217.118 507.462 216.67 507.825 216.111L533.211 176.941C533.571 176.385 534.17 176.379 534.539 176.915L552.746 203.664L560.543 191.563C560.902 191.006 561.509 190.982 561.903 191.515L580.127 216.148C580.52 216.678 580.299 217.114 579.639 217.12L563.018 217.277L545.187 217.118ZM561.115 183.057C557.909 183.057 555.311 180.538 555.311 177.432C555.311 174.325 557.909 171.807 561.115 171.807C564.32 171.807 566.918 174.325 566.918 177.432C566.918 180.538 564.32 183.057 561.115 183.057Z" fill="#E1E5F0"/>
<path d="M571.765 122.803L603.627 154.317L573.543 159.685C568.889 160.516 565.771 157.403 566.577 152.753L571.765 122.803Z" fill="#E1E5F0"/>
<path d="M767.706 663.682V602.109C767.706 564.772 767.706 527.52 767.706 490.268V433.149C767.706 431.093 732.167 429.381 689.434 429.381H680.528C637.881 429.381 602.257 431.093 602.257 433.149V663.853C602.257 665.908 637.796 667.621 680.528 667.621H689.434C732.081 667.707 767.706 665.908 767.706 663.682Z" fill="#7C7C7C"/>
<path d="M514.993 873.662L515.336 873.833C517.134 874.775 519.446 874.262 520.303 872.635L620.583 688.431C621.525 686.718 620.754 684.577 618.956 683.635L618.613 683.464C616.815 682.522 614.503 683.036 613.646 684.663L588.812 730.221C572.626 760.023 556.441 789.739 540.17 819.54L513.366 868.695C512.424 870.408 513.195 872.635 514.993 873.662Z" fill="#7C7C7C"/>
<path d="M763.938 680.467H701.167C663.144 680.467 625.121 680.467 587.185 680.467H528.952C526.897 680.467 525.098 682.179 525.098 684.235V684.663C525.098 686.718 526.811 688.431 528.952 688.431H764.109C766.165 688.431 767.963 686.718 767.963 684.663V684.235C767.963 682.179 766.165 680.467 763.938 680.467Z" fill="#7C7C7C"/>
<path d="M794.596 868.695L767.792 819.54C751.606 789.739 735.421 760.023 719.15 730.221L694.316 684.663C693.459 683.036 691.147 682.436 689.349 683.464L689.006 683.635C687.208 684.577 686.437 686.804 687.379 688.431L787.659 872.635C788.516 874.262 790.828 874.861 792.626 873.834L792.969 873.662C794.767 872.635 795.538 870.408 794.596 868.695Z" fill="#7C7C7C"/>
<path d="M702.173 866.126H615.958C615.365 866.126 614.804 866.24 614.304 866.443L621.925 821.381L682.583 813.888L702.173 866.126ZM594.055 866.32C593.672 866.194 593.263 866.126 592.837 866.126H456.76C456.324 866.126 455.905 866.198 455.514 866.329C455.258 865.907 455.068 865.436 454.962 864.927V864.842C454.962 864.414 454.876 863.985 454.962 863.557C455.048 863.043 455.048 862.615 455.219 862.101C456.332 858.248 459.329 854.994 461.299 853.195C461.556 852.938 461.727 852.853 461.984 852.681C465.752 850.369 469.606 848.228 473.631 846.43C481.509 842.833 498.979 835.468 504.203 832.814C510.968 829.388 520.303 823.565 530.065 813.117C530.579 812.86 531.264 812.518 531.264 812.518L591.209 811.062C591.209 811.062 591.466 811.918 591.466 812.004L594.464 864.499C594.464 865.154 594.317 865.77 594.055 866.32Z" fill="#474961"/>
<path d="M456.76 866.126H592.922C595.051 866.126 596.776 867.852 596.776 869.98C596.776 872.108 595.051 873.834 592.922 873.834H456.76C454.632 873.834 452.907 872.108 452.907 869.98C452.907 867.852 454.632 866.126 456.76 866.126ZM616.044 866.126H701.68C703.809 866.126 705.534 867.852 705.534 869.98C705.534 872.108 703.809 873.834 701.68 873.834H616.044C613.916 873.834 612.19 872.108 612.19 869.98C612.19 867.852 613.916 866.126 616.044 866.126Z" fill="#2B2659"/>
<path d="M696.972 670.937C696.971 672.207 696.97 673.492 696.97 674.791C696.97 718.434 695.429 780.906 694.915 801.65C694.829 804.363 695.172 811.783 690.034 816.49C687.979 818.325 685.752 819.123 684.382 819.602C669.224 824.629 647.986 824.708 624.693 822.793C623.152 822.634 620.668 821.756 617.329 820.799C612.276 819.283 608.594 814.815 608.08 809.469C605.682 786.012 599.088 721.944 598.574 716.279C597.889 709.099 597.29 700.961 596.776 691.705L595.093 664.87C586.189 662.985 577.705 660.918 569.675 658.75C580.672 702.889 591.401 749.028 600.886 794.873C601.315 796.881 602.085 801.567 599.859 806.003C595.748 814.12 585.044 813.785 559.438 816.965C529.294 820.814 516.706 824.747 509.855 816.63C507.543 814.036 506.772 811.274 506.515 810.019C500.264 777.133 469.263 681.486 457.189 612.868C457.189 612.701 457.103 612.617 457.103 612.45C456.153 606.985 456.317 601.606 457.424 596.561C459.811 573.046 479.422 554.465 503.655 553.959L576.915 552.43C608.943 551.859 712.631 548.519 715.694 551.452C718.756 554.385 720.014 578.962 720.356 589.411C720.356 593.248 720.356 597.166 720.442 600.922C720.442 619.289 717.273 636.106 711.964 649.086C708.281 658.066 703.657 665.168 698.433 669.74C697.951 670.161 697.464 670.561 696.972 670.937Z" fill="#2B265A"/>
<path opacity="0.176986" d="M696.823 671.05C696.835 655.973 696.921 642.992 697.078 634.474C697.249 627.133 698.534 586.762 681.921 578.384C680.465 577.666 679.009 577.028 676.097 575.991C673.785 575.193 661.796 570.964 646.381 571.602C636.362 572.001 621.29 572.64 608.873 582.693C591.66 596.735 592.088 618.676 592.259 622.266L594.928 664.836C586.004 662.942 577.503 660.867 569.458 658.691C563.896 636.378 558.267 614.576 552.695 593.585C547.557 574.255 529.488 561.703 510.391 564.129C503.283 565.05 496.175 565.97 489.067 566.891C473.229 568.987 461.203 580.806 457.513 595.753C460.262 572.622 479.7 554.459 503.655 553.959L576.915 552.43C608.943 551.859 712.631 548.519 715.694 551.452C718.756 554.385 720.014 578.962 720.356 589.411C720.356 593.248 720.356 597.166 720.442 600.922C720.442 619.289 717.273 636.106 711.964 649.086C708.282 658.066 703.657 665.168 698.433 669.74C697.902 670.204 697.365 670.641 696.823 671.05Z" fill="#444444"/>
<path d="M567.951 495.046L531.115 491.399C527.347 491.056 527.341 483.289 527.231 480.122C527.591 476.882 529.093 471.993 531.802 470.722C530.286 468.087 530.026 463.413 531.181 458.919C532.102 455.334 535.329 453.204 538.67 452.105C541.433 443.167 545.708 428.388 547.293 421.325C552.026 399.823 558.51 391.627 560.74 389.236C563.297 386.405 565.799 384.432 567.469 383.174C578.745 374.811 590.941 373.186 597.183 372.796C597.351 372.705 597.523 372.699 597.694 372.693L621.328 371.534C624.504 371.17 627.514 370.941 630.23 370.736C638.486 370.159 647.007 369.55 655.416 370.604L681.883 370.977C682.054 370.977 682.225 370.977 682.396 371.062C688.648 371.234 700.894 372.433 712.455 380.397C714.168 381.596 716.737 383.48 719.391 386.22C721.704 388.532 728.469 396.496 733.95 417.82C735.78 424.823 740.569 439.444 743.642 448.281C747.02 449.262 750.319 451.279 751.364 454.829C752.675 459.28 752.578 463.96 751.155 466.646C753.907 467.822 755.579 472.656 756.052 475.881C756.052 479.05 756.318 486.813 752.564 487.287L719.296 491.758C721.653 510.231 721.72 525.653 719.967 535.839C719.967 536.101 719.874 536.452 719.782 536.715C719.319 539.432 718.672 541.71 717.839 543.55C717.747 543.726 717.654 543.901 717.562 544.076C712.844 550.736 675.561 548.37 666.773 548.633C652.341 549.071 635.689 549.159 615.151 548.721C608.768 548.545 596.649 549.685 581.847 545.829C581.754 545.829 581.662 545.741 581.662 545.741C581.662 545.741 579.811 545.215 577.684 543.989C576.666 543.375 575.463 542.674 574.446 541.71C565.194 533.385 567.23 513.492 567.23 513.492C567.472 506.974 567.713 500.832 567.951 495.046Z" fill="#E74448"/>
<path d="M650.895 346.436L651.824 373.717C651.824 374.317 651.567 374.916 651.054 375.173C648.827 376.543 645.658 378.085 641.719 378.941C634.611 380.568 628.531 379.369 625.106 378.341C624.421 378.17 623.907 377.485 623.907 376.8L623.571 361.562C618.709 363.374 618.985 363.194 618.533 363.345C613.138 364.715 608.514 364.543 607.658 364.372C604.575 364.115 601.321 361.546 598.409 357.179C594.47 351.355 590.959 342.278 589.075 331.402C588.732 329.861 588.646 328.319 588.561 326.778L588.218 311.449C588.133 308.023 588.989 304.684 590.616 301.515C591.301 300.145 591.986 299.032 592.843 298.09C593.024 297.856 593.209 297.628 593.397 297.406C600.128 288.71 613.515 287.569 619.732 288.241C620.503 288.327 623.243 288.67 627.183 288.927C629.324 289.098 631.036 289.098 632.064 289.183C644.824 289.697 649.876 288.156 656.299 291.581C657.498 292.181 660.238 293.722 662.636 296.719C669.401 305.197 667.774 316.159 667.346 319.413C665.805 329.176 660.153 335.17 658.44 337.654C656.503 340.51 653.307 343.969 650.895 346.436ZM532.573 530.421L538.68 492.193L567.901 494.464L567.58 520.611C578.749 519.359 589.799 519.217 595.381 521.632C595.542 521.7 595.699 521.771 595.854 521.844C622.307 516.839 667.608 508.556 695.387 505.083L692.589 495.204L750.117 487.471C752.718 515.783 749.762 550.041 721.185 553.553C688.204 557.607 633.603 557.607 557.382 553.553H519.731C519.198 542.552 526.445 536.226 532.573 530.421Z" fill="#FFD6C7"/>
<path d="M665.7 325.63C661.685 325.636 657.857 325.827 654.051 326.04C654.623 322.987 654.167 319.642 652.167 316.855C649.426 313.001 644.288 310.86 640.178 312.23C637.866 313.001 636.324 314.799 636.153 314.971C633.841 317.882 633.327 320.965 633.327 320.965L632.895 325.213C626.015 318.088 617.249 309.079 610.708 302.2C606.85 303.257 600.484 304.314 593.251 302.777C592.261 302.558 591.328 302.228 590.444 301.856C590.501 301.742 590.558 301.628 590.616 301.515C591.301 300.145 591.986 299.032 592.843 298.09C593.024 297.856 593.209 297.628 593.397 297.406C600.128 288.71 613.515 287.569 619.732 288.241C620.503 288.327 623.243 288.67 627.183 288.927C629.324 289.098 631.036 289.098 632.064 289.183C644.824 289.697 649.876 288.156 656.299 291.581C657.498 292.181 660.238 293.722 662.636 296.719C669.401 305.197 667.774 316.159 667.346 319.413C666.987 321.689 666.404 323.76 665.7 325.63ZM591.622 322.164C590.766 321.993 590.509 320.879 591.108 320.28C591.879 319.595 593.249 318.91 594.962 318.91C598.473 318.91 602.241 321.222 598.302 322.25C595.989 322.935 593.249 322.592 591.622 322.164ZM609.263 322.763C608.407 322.592 608.15 321.479 608.835 320.879C609.606 320.194 610.976 319.509 612.774 319.509C616.285 319.509 620.053 321.907 616.114 322.849C613.63 323.62 610.976 323.106 609.263 322.763Z" fill="#482D1F"/>
<path opacity="0.2" d="M532.504 530.628L538.68 492.193L567.901 494.464L567.578 520.754C552.361 522.46 536.927 526.228 534.803 528.401C534.067 529.14 533.295 529.88 532.504 530.628Z" fill="#8C2A00"/>
<path d="M598.302 328.244C598.216 329.7 597.959 332.098 597.103 332.954C595.647 334.239 593.763 329.957 594.876 327.302C595.304 326.189 595.904 326.018 596.589 326.103C597.616 326.275 598.302 327.217 598.302 328.244ZM613.63 327.987C613.716 329.443 613.716 331.841 612.86 332.869C611.575 334.324 609.177 330.214 610.034 327.473C610.376 326.36 610.976 326.103 611.661 326.103C612.688 326.103 613.545 326.96 613.63 327.987Z" fill="#482D1F"/>
<path d="M606.608 345.628C607.208 345.457 608.664 345.029 608.92 344.087C608.92 343.916 609.006 343.659 608.92 343.487C608.578 342.888 607.55 343.231 606.009 343.316C603.268 343.487 601.042 343.231 601.042 343.231C601.042 343.231 601.641 344.943 602.07 345.457C603.012 346.742 605.752 345.885 606.608 345.628Z" fill="#482D1F"/>
<path d="M599.509 337.46C599.347 338.425 600.096 339.374 601.072 339.537C601.286 339.556 601.286 339.556 601.425 339.567C602.869 339.678 603.773 339.719 605.324 339.719C605.797 339.719 606.18 339.336 606.18 338.863C606.18 338.39 605.797 338.007 605.324 338.007C603.822 338.007 602.96 337.967 601.556 337.859L601.279 337.838C601.277 337.834 601.199 337.736 601.202 337.719L602.489 328.534L602.498 328.415V323.363C602.498 322.89 602.114 322.507 601.641 322.507C601.168 322.507 600.785 322.89 600.785 323.363V328.356L599.509 337.46Z" fill="#482D1F"/>
<path d="M654.061 321.526C654.453 324.035 654.001 326.767 652.862 328.963C651.478 331.732 649.529 333.241 647.012 334.403C646.583 334.601 646.395 335.11 646.594 335.54C646.792 335.969 647.301 336.156 647.73 335.958C648.837 335.447 649.715 334.954 650.732 334.166C652.231 333.006 653.484 331.549 654.389 329.74C655.689 327.232 656.202 324.132 655.753 321.261C655.68 320.794 655.242 320.474 654.775 320.547C654.308 320.62 653.988 321.058 654.061 321.526Z" fill="#482D1F"/>
<path d="M598.708 328.426C598.622 329.882 598.365 332.28 597.509 333.136C596.053 334.421 594.169 330.139 595.283 327.484C595.711 326.371 596.31 326.2 596.995 326.285C598.023 326.456 598.708 327.398 598.708 328.426ZM614.037 328.169C614.123 329.625 614.123 332.023 613.266 333.05C611.982 334.506 609.584 330.396 610.44 327.655C610.783 326.542 611.382 326.285 612.067 326.285C613.095 326.285 613.951 327.142 614.037 328.169Z" fill="#482D1F"/>
<path d="M607.015 345.81C607.614 345.639 609.07 345.211 609.327 344.269C609.327 344.098 609.413 343.841 609.327 343.669C608.984 343.07 607.957 343.412 606.415 343.498C603.675 343.669 601.448 343.412 601.448 343.412C601.448 343.412 602.048 345.125 602.476 345.639C603.418 346.924 606.158 346.067 607.015 345.81Z" fill="#482D1F"/>
<path d="M654.468 321.707C654.86 324.217 654.408 326.948 653.269 329.145C651.885 331.914 649.936 333.423 647.419 334.585C646.989 334.783 646.802 335.292 647 335.721C647.198 336.151 647.707 336.338 648.137 336.14C649.243 335.629 650.122 335.136 651.139 334.348C652.637 333.188 653.891 331.731 654.795 329.922C656.096 327.414 656.608 324.314 656.16 321.443C656.087 320.976 655.649 320.656 655.181 320.729C654.714 320.802 654.395 321.24 654.468 321.707Z" fill="#482D1F"/>
<path d="M693.831 495.457C694.039 496.135 693.659 496.854 692.981 497.062C692.303 497.271 691.584 496.89 691.375 496.212C688.935 488.28 681.143 464.241 679.495 459.8C679.248 459.135 679.588 458.396 680.253 458.149C680.918 457.902 681.657 458.242 681.904 458.907C683.574 463.407 691.376 487.48 693.831 495.457ZM576.885 423.524C574.744 443.318 573.031 459.108 569.178 494.603C569.101 495.308 568.467 495.818 567.762 495.741C567.057 495.665 566.547 495.031 566.624 494.326C570.477 458.831 572.19 443.041 574.331 423.248C574.407 422.543 575.041 422.033 575.746 422.109C576.451 422.185 576.961 422.819 576.885 423.524Z" fill="#482D1F"/>
<path d="M623.592 361.864L630.607 358.738L623.758 370.029L623.592 361.864Z" fill="#482D1F"/>
<path d="M280.007 872.635L279.664 872.806C277.866 873.748 275.554 873.234 274.697 871.607L174.417 687.403C173.475 685.69 174.246 683.55 176.044 682.608L176.387 682.436C178.185 681.494 180.497 682.008 181.354 683.635L206.188 729.194C222.374 758.995 238.559 788.711 254.83 818.512L281.634 867.668C282.576 869.38 281.805 871.607 280.007 872.635Z" fill="#7C7C7C"/>
<path d="M34.1449 679.439H96.9163C134.939 679.439 172.961 679.439 210.898 679.439H269.131C271.186 679.439 272.985 681.152 272.985 683.207V683.635C272.985 685.69 271.272 687.403 269.131 687.403H33.9736C31.9183 687.403 30.12 685.69 30.12 683.635V683.207C30.12 681.152 31.9183 679.439 34.1449 679.439Z" fill="#7C7C7C"/>
<path d="M0.404147 867.668L27.2083 818.512C43.3936 788.711 59.5789 758.995 75.8498 729.194L100.684 683.635C101.541 682.008 103.853 681.409 105.651 682.436L105.994 682.607C107.792 683.549 108.563 685.776 107.621 687.403L7.34069 871.607C6.48433 873.234 4.17215 873.833 2.37378 872.806L2.03124 872.635C0.232874 871.607 -0.537853 869.38 0.404147 867.668Z" fill="#7C7C7C"/>
<path d="M8.36833 435.889L16.5038 501.658C21.4707 541.479 26.352 581.3 31.3189 621.035L38.8549 682.008C39.1118 684.149 37.656 686.29 35.6007 686.547L35.1725 686.632C33.1172 686.889 31.2332 685.348 30.8907 683.036L0.318514 436.745C0.0616044 434.605 1.51742 432.464 3.5727 432.207L4.00088 432.121C6.14179 431.864 8.11142 433.577 8.36833 435.889Z" fill="#7C7C7C"/>
<path d="M152.945 866.047H199.252C201.393 866.047 203.191 867.806 203.191 869.901C203.191 871.995 201.393 873.754 199.252 873.754H151.724C149.583 873.754 147.87 872.079 147.784 869.901C147.784 867.806 149.583 866.047 151.724 866.047H152.945L153.865 866.732C155.577 868.017 155.92 870.5 154.635 872.213C153.351 873.926 150.867 874.268 149.155 872.984L63.1756 808.928C61.4629 807.643 61.1204 805.16 62.4049 803.447C63.6895 801.734 66.1729 801.392 67.8856 802.676L152.945 866.047ZM379.174 873.665H243.183C241.042 873.665 239.33 871.952 239.33 869.811C239.33 867.67 241.042 865.958 243.183 865.958H379.259C381.4 865.958 383.113 867.67 383.113 869.811C383.027 871.952 381.315 873.665 379.174 873.665Z" fill="#DAECFA"/>
<path d="M67.9012 802.747L99.3142 758.224L150.867 795.648C153.693 805.239 156.605 814.83 159.517 824.507C161.058 829.56 162.599 834.526 164.141 839.493C168.937 841.377 173.047 843.09 175.959 844.375C181.525 846.773 186.235 848.999 191.373 852.339C191.373 852.339 195.826 855.079 198.31 859.019C199.081 860.303 199.766 861.759 200.194 863.3C200.365 863.985 200.365 864.671 200.451 865.27C200.436 865.573 200.393 865.896 200.33 866.223C199.963 866.109 199.574 866.047 199.173 866.047H152.866L67.9012 802.747ZM380.246 866.105C379.908 866.009 379.55 865.958 379.18 865.958H243.104C242.567 865.958 242.057 866.066 241.594 866.261C241.35 865.727 241.214 865.132 241.214 864.502L244.967 814.662C244.853 812.949 264.212 812.121 303.043 812.178C303.985 812.178 304.842 812.435 305.612 813.035C315.375 823.482 324.709 829.305 331.474 832.731C336.698 835.386 354.168 842.75 362.047 846.347C366.072 848.145 369.925 850.286 373.693 852.599C373.95 852.77 374.121 852.855 374.378 853.112C376.348 854.911 379.345 858.165 380.458 862.019C380.63 862.532 380.63 862.961 380.715 863.474C380.801 863.903 380.715 864.331 380.715 864.759V864.845C380.621 865.297 380.461 865.72 380.246 866.105Z" fill="#E84548"/>
<path d="M139.895 670.94L105.419 676.249C76.3077 680.934 43.5267 658.659 39.2727 626.766C38.8556 623.971 38.6888 621.177 38.6888 618.382C38.6888 591.914 40.3963 563.645 67.5431 557.72C94.6898 551.796 274.647 556.076 295.432 556.076C316.216 556.076 323.706 564.26 331.27 576.313C338.833 588.365 336.554 608.985 334.635 621.972C331.215 645.398 329.464 663.317 328.796 682.469C328.63 686.497 328.379 690.771 328.129 695.538C326.628 723.979 325.293 735.733 322.791 772.639C321.873 787.271 321.122 799.929 320.539 809.546C320.288 814.314 316.201 818.095 311.363 818.095H306.442L237.844 818.341C232.672 818.341 228.418 814.149 228.585 809.053L229.503 774.941L230.086 754.556C230.413 743.107 230.739 730.893 231.065 718.469C223.272 728.338 216.169 737.409 209.757 745.683C204.564 752.501 198.617 760.335 191.202 770.214C181.354 783.316 173.047 794.62 166.71 803.355C163.935 807.104 158.862 808.359 154.481 806.6C153.807 806.34 153.149 806.011 152.517 805.609L147.807 802.526L115.265 781.716L88.8034 764.76C83.7508 761.506 82.295 754.997 85.5492 750.287L107.044 718.945L119.889 700.19C124.429 693.539 131.098 683.789 139.895 670.94Z" fill="#E1EFFC"/>
<path opacity="0.176986" d="M230.79 718.79C214.525 739.392 201.279 756.505 191.053 770.128C181.205 783.23 172.898 794.534 166.561 803.269C163.393 807.551 157.227 808.579 152.517 805.581L147.807 802.498L115.265 781.689L88.8034 764.733C83.7508 761.479 82.295 754.97 85.5492 750.26L107.044 718.917L119.889 700.163C124.453 693.476 131.169 683.658 140.036 670.707L232.41 656.483V658.871L231.826 679.256C231.481 692.236 231.135 705.635 230.79 718.79L230.79 718.79Z" fill="#444444"/>
<path d="M245.18 636.533C240.976 642.891 239.718 644.624 238.438 646.056C237.02 647.642 235.681 649.485 231.393 655.972C230.871 656.761 231.088 657.824 231.877 658.345C232.666 658.867 233.728 658.65 234.25 657.861C238.454 651.503 239.712 649.77 240.992 648.338C242.41 646.751 243.749 644.909 248.037 638.422C248.559 637.633 248.342 636.57 247.553 636.048C246.764 635.527 245.702 635.744 245.18 636.533Z" fill="#482D1F"/>
<path d="M180.583 455.842C193.172 446.422 225.713 420.817 225.713 420.817C236.332 430.408 210.813 447.621 210.813 447.621" fill="#482D1F"/>
<mask id="mask0_105_79" style="mask-type:alpha" maskUnits="userSpaceOnUse" x="35" y="378" width="144" height="185">
<path d="M135.526 381.817C138.207 382.663 140.912 383.82 143.588 385.364C153.779 391.273 158.66 398.894 167.652 414.394C175.188 427.24 181.868 438.801 177.072 446.508C173.885 451.624 166.755 452.962 161.957 453.337L161.743 473.227V474.083L161.315 516.73C160.621 530.51 159.764 541.719 158.746 550.355C157.218 563.31 59.4057 568.65 59.4057 553.791C57.0935 548.139 56.3247 529.832 56.4104 523.324L57.1098 460.3C56.0048 460.404 54.8872 460.529 53.7556 460.675C48.96 460.675 41.5096 459.767 37.9129 454.315C32.6891 446.502 38.6836 433.873 45.3633 419.699C53.4131 402.709 56.8768 393.015 67.6287 387.445C72.3037 385.023 76.1924 383.827 79.2948 383.857C85.6634 380.109 93.0345 378.029 100.856 378.17L119.696 378.513C125.304 378.573 130.643 379.742 135.526 381.817Z" fill="white"/>
</mask>
<g mask="url(#mask0_105_79)">
<path d="M135.526 381.817C138.207 382.663 140.912 383.82 143.588 385.364C153.779 391.273 158.66 398.894 167.652 414.394C175.188 427.24 181.868 438.801 177.072 446.508C173.885 451.624 166.755 452.962 161.957 453.337L161.743 473.227V474.083L161.315 516.73C160.621 530.51 159.764 541.719 158.746 550.355C157.218 563.31 59.4057 568.65 59.4057 553.791C57.0935 548.139 56.3247 529.832 56.4104 523.324L57.1098 460.3C56.0048 460.404 54.8872 460.529 53.7556 460.675C48.96 460.675 41.5096 459.767 37.9129 454.315C32.6891 446.502 38.6836 433.873 45.3633 419.699C53.4131 402.709 56.8768 393.015 67.6287 387.445C72.3037 385.023 76.1924 383.827 79.2948 383.857C85.6634 380.109 93.0345 378.029 100.856 378.17L119.696 378.513C125.304 378.573 130.643 379.742 135.526 381.817Z" fill="#F5C84D"/>
</g>
<path opacity="0.2" d="M114.904 378.725C123.027 377.984 133.994 379.831 143.588 385.364C153.779 391.273 158.795 399.232 167.787 414.732C175.323 427.578 181.868 438.801 177.072 446.508C173.919 451.57 166.906 452.933 162.111 453.324L162.407 425.829V424.287C162.75 399.453 143.739 379.071 119.846 378.814L114.904 378.725V378.725Z" fill="#8C2A00"/>
<path d="M251.282 466.299L251.239 473.944C251.279 477.168 248.02 479.376 245.018 478.151L237.964 475.255L204.725 425.568C203.35 423.499 203.94 420.647 206.009 419.272L211.832 415.343C213.9 413.968 216.753 414.558 218.127 416.627L251.282 466.299Z" fill="#F5C84D"/>
<path d="M202.805 443.502L226.268 429.232C228.423 427.957 231.206 428.876 232.446 431.33L233.585 433.498C234.475 435.322 234.286 437.401 233.319 438.939C235.057 438.806 236.721 439.832 237.569 441.748L238.711 443.979C239.779 446.223 239.304 448.839 237.8 450.43C239.889 449.484 242.414 450.437 243.583 452.824L244.722 454.985C245.966 457.526 245.1 460.565 242.949 461.932L229.014 470.381C211.424 482.977 194.937 494.17 179.551 503.96L180.394 510.827C199.111 513.65 224.873 517.54 257.68 522.497L258.039 522.551C264.039 522.039 269.272 522.938 272.846 523.677C281.81 522.778 290.684 521.798 299.562 520.903C306.747 518.81 322.873 515.39 323.925 525.636C323.925 525.636 317.006 527.887 307.636 530.867C294.384 535.081 276.149 540.844 265.851 544.131L265.484 544.142L223.057 555.519L154.591 555.373C154.516 555.097 154.441 554.821 154.366 554.547C156.932 553.249 158.476 551.824 158.679 550.294C159.824 541.664 160.681 530.444 161.25 516.634L161.264 515.246C140.008 527.931 121.125 537.595 104.616 544.238C94.8533 548.178 85.262 551.689 75.9277 554.772C54.176 559.054 44.9351 546.788 42.4516 544.305C39.54 541.393 33.6311 533.258 44.3356 485.13C46.3699 475.996 48.4971 467.735 50.5181 460.494C51.6463 460.597 52.7199 460.634 53.6859 460.634C74.5107 457.936 90.614 462.751 110.76 461.132C108.285 467.446 105.069 475.017 101.113 483.846C120.979 477.036 141.212 469.403 161.81 460.945L161.893 453.175C165.158 452.92 169.502 452.219 172.951 450.187C172.957 450.224 172.963 450.261 172.969 450.297L173.668 456.002C183.112 452.007 192.63 447.841 202.225 443.504C202.352 443.44 202.546 443.44 202.805 443.502ZM99.1546 377.69C101.022 372.783 102.857 368.444 104.811 363.279C104.804 363.276 104.799 363.272 104.795 363.269L106.597 348.338C106.426 347.396 105.651 347.769 104.795 347.512C102.568 346.913 100.636 345.055 99.0944 343.342C96.2684 340.088 95.8031 335.352 97.1733 330.985C98.886 326.788 103.339 323.62 107.45 323.962C108.991 324.134 110.447 324.733 111.817 325.589L111.903 325.675C112.331 326.103 112.93 326.189 113.53 326.275C114.986 326.275 116.185 325.247 116.27 323.791L117.041 301.44C117.041 299.984 118.154 298.957 119.61 298.957C122.779 298.957 125.861 298.785 129.03 298.1C129.458 298.1 129.801 298.015 130.143 298.015C133.226 297.672 149.754 296.644 158.66 308.89C159.431 310.089 160.202 311.288 160.801 312.487C162.343 315.57 163.028 318.995 162.771 322.592L161.829 338.178C161.657 339.719 161.486 341.261 161.144 342.888C157.033 362.156 148.298 375.515 140.933 375.944C137.165 376.029 133.397 375.601 129.715 374.488C129.257 374.259 129.548 374.438 124.401 372.357L123.32 378.192C128.143 379.106 133.119 380.58 138.146 382.787C136.518 384.928 134.768 386.905 132.969 388.275C113.444 403.519 68.7122 387.08 76.4348 383.937C80.2241 382.394 88.4628 379.152 99.1546 377.69Z" fill="#BA6D4D"/>
<path opacity="0.2" d="M161.794 514.702C167.544 511.267 173.467 507.611 179.563 503.734L180.452 510.887C192.908 512.806 218.735 516.702 257.93 522.574C257.943 522.573 257.955 522.572 257.968 522.571C264.116 521.991 269.481 523.023 273.125 523.776C282.089 522.877 290.684 521.798 299.562 520.903C306.747 518.81 322.873 515.39 323.925 525.636C323.057 525.94 317.533 527.633 308.163 530.614C294.91 534.828 276.675 540.591 266.377 543.877L266.011 543.889L223.583 555.266L155.118 555.12C155.042 554.843 154.967 554.568 154.892 554.293C157.458 552.995 159.003 551.571 159.206 550.041C160.35 541.411 161.207 530.191 161.777 516.38L161.794 514.702ZM162.339 460.455L162.42 452.922C165.511 452.68 169.569 452.039 172.919 450.247L173.604 455.759C169.837 457.351 166.082 458.917 162.339 460.455Z" fill="#8C2A00"/>
<path d="M360.848 502.411C361.533 505.066 359.991 507.721 357.337 508.406L238.473 540.434C235.819 541.119 233.164 539.578 232.479 536.923C231.794 534.268 233.335 531.613 235.99 530.928L354.853 498.9C357.422 498.301 360.163 499.842 360.848 502.411Z" fill="#474961"/>
<path d="M79.1376 323.542C79.2608 318.543 80.3728 311.9 84.756 306.407C86.5544 304.095 88.9522 302.382 91.5213 301.097C98.3722 297.672 103.596 299.385 117.127 299.042C119.867 299.042 123.892 298.614 129.03 298.1C132.541 297.666 153.675 294.966 158.66 308.89C156.902 308.548 152.751 308.462 148.898 309.404C132.284 313.515 127.403 342.289 119.781 341.09C119.709 341.081 119.632 341.068 119.55 341.05L119.61 341.004L115.928 330.899C115.071 328.844 113.615 327.217 111.903 325.846C110.533 324.99 109.077 324.391 107.535 324.219C103.425 323.877 98.9716 327.045 97.2589 331.241C95.6318 335.438 96.4026 340.148 99.3998 343.402C101.284 345.543 103.853 346.999 106.679 347.512L106.893 347.508C106.35 353.915 105.539 362.524 104.735 363.703C103.455 367.061 102.24 369.995 101.03 372.996C99.3041 372.855 97.7725 372.708 96.5738 372.604C92.8058 372.261 87.2395 371.833 80.2173 371.405C80.2173 371.405 79.7035 371.405 79.2753 371.319C77.0487 370.977 74.9078 370.634 72.7669 369.521C72.7669 369.521 72.0818 369.264 71.4824 368.75C59.4076 358.816 56.7529 344.601 61.8911 336.637C65.5735 331.07 72.7669 328.929 73.7946 328.587C75.1647 328.159 76.5349 327.987 77.7338 327.902C78.2018 326.498 78.6697 325.023 79.1376 323.542ZM149.754 333.639C148.041 334.067 145.215 334.496 142.903 333.896C138.878 333.04 142.646 330.642 146.329 330.471C148.041 330.385 149.411 331.07 150.268 331.755C150.867 332.355 150.61 333.468 149.754 333.639ZM164.312 333.297C162.599 333.896 159.945 334.667 157.461 334.239C153.265 333.639 156.862 330.899 160.459 330.471C162.343 330.214 163.627 330.813 164.569 331.413C165.34 331.927 165.169 333.04 164.312 333.297Z" fill="#482D1F"/>
<path d="M157.975 344.087C157.204 343.059 157.461 340.747 157.718 339.206C157.804 338.092 158.831 337.407 159.773 337.407C160.373 337.493 161.144 337.835 161.315 339.034C161.914 341.86 159.003 345.8 157.975 344.087ZM143.845 344.173C142.989 343.145 143.331 340.747 143.588 339.291C143.674 338.178 144.701 337.493 145.643 337.493C146.243 337.579 147.014 337.921 147.185 339.12C147.784 341.946 144.958 345.885 143.845 344.173Z" fill="#482D1F"/>
<path d="M157.111 337.608C157.175 337.139 156.846 336.708 156.377 336.644C155.909 336.581 155.477 336.909 155.414 337.378L154.729 342.43L154.721 342.537L154.636 351.613C154.604 351.715 154.523 351.782 154.411 351.793C153.336 351.679 152.044 351.681 150.529 351.797C150.058 351.833 149.705 352.244 149.741 352.716C149.777 353.187 150.188 353.54 150.66 353.504C152.105 353.394 153.315 353.394 154.284 353.502L154.378 353.507C155.379 353.507 156.179 352.796 156.336 351.849L156.348 351.717L156.433 342.607L157.111 337.608Z" fill="#482D1F"/>
<path d="M149.583 360.101C148.983 360.015 147.442 359.673 147.099 358.731C147.099 358.56 146.928 358.303 147.014 358.131C147.271 357.703 149.925 357.703 149.925 357.703C153.436 357.789 154.293 357.618 154.55 358.046C154.635 358.303 154.635 358.645 154.036 359.416C153.265 360.872 150.439 360.358 149.583 360.101Z" fill="#482D1F"/>
<path d="M100.575 482.679C101.22 482.382 101.983 482.664 102.279 483.308C102.576 483.953 102.294 484.715 101.65 485.012L74.5032 497.515C73.8588 497.812 73.0958 497.53 72.7991 496.886C72.5023 496.241 72.7841 495.478 73.4284 495.182L100.575 482.679ZM115.401 443.168C115.165 442.499 115.516 441.765 116.185 441.529C116.854 441.293 117.588 441.644 117.824 442.313C117.884 442.483 117.984 442.787 118.111 443.205C118.321 443.896 118.53 444.662 118.725 445.485C119.258 447.733 119.589 449.98 119.62 452.099C119.715 458.664 116.879 462.865 110.344 462.779C109.635 462.769 109.067 462.187 109.077 461.477C109.086 460.768 109.669 460.201 110.378 460.21C115.202 460.274 117.127 457.422 117.051 452.136C117.023 450.227 116.718 448.158 116.225 446.078C116.043 445.309 115.848 444.593 115.653 443.951C115.538 443.571 115.449 443.303 115.401 443.168Z" fill="#482D1F"/>
<path d="M124.577 372.261L117.64 369.435L121.751 384.935L124.577 372.261Z" fill="#482D1F"/>
<path d="M726.087 550.128H40.1394C36.8287 550.128 34.1449 552.812 34.1449 556.123C34.1449 559.433 36.8287 562.117 40.1394 562.117H726.087C729.397 562.117 732.081 559.433 732.081 556.123C732.081 552.812 729.397 550.128 726.087 550.128Z" fill="#7C7C7C"/>
<path d="M428.945 295.024H185.857C176.311 295.024 168.516 286.699 168.516 276.506V105.516C168.516 95.3226 176.311 86.9982 185.857 86.9982H428.945C438.49 86.9982 446.285 95.3226 446.285 105.516V276.421C446.285 286.699 438.49 295.024 428.945 295.024Z" fill="#F2F6FB"/>
<path d="M248.433 202.48C261.167 202.48 271.489 192.338 271.489 179.827C271.489 167.316 261.167 157.174 248.433 157.174C235.7 157.174 225.378 167.316 225.378 179.827C225.378 192.338 235.7 202.48 248.433 202.48Z" fill="#FFCB3D"/>
<path d="M305.524 202.48C318.258 202.48 328.58 192.338 328.58 179.827C328.58 167.316 318.258 157.174 305.524 157.174C292.791 157.174 282.468 167.316 282.468 179.827C282.468 192.338 292.791 202.48 305.524 202.48Z" fill="#3ABF7C"/>
<path d="M362.615 202.48C375.349 202.48 385.671 192.338 385.671 179.827C385.671 167.316 375.349 157.174 362.615 157.174C349.882 157.174 339.559 167.316 339.559 179.827C339.559 192.338 349.882 202.48 362.615 202.48Z" fill="#7C7C7C"/>
<path d="M385.199 239.156H230.241C227.858 239.156 225.926 241.088 225.926 243.471C225.926 245.854 227.858 247.785 230.241 247.785H385.199C387.582 247.785 389.514 245.854 389.514 243.471C389.514 241.088 387.582 239.156 385.199 239.156Z" fill="#E1E5F0"/>
<path d="M384.929 221.896H230.511C227.979 221.896 225.926 223.949 225.926 226.481C225.926 229.013 227.979 231.065 230.511 231.065H384.929C387.461 231.065 389.514 229.013 389.514 226.481C389.514 223.949 387.461 221.896 384.929 221.896Z" fill="#E1E5F0"/>
<path d="M167.738 97.8447C167.738 91.2914 173.049 85.9789 179.608 85.9789H434.186C440.741 85.9789 446.056 91.29 446.056 97.8447V109.711H167.738V97.8447Z" fill="#E1E5F0"/>
<path d="M183.932 103.238C186.812 103.238 189.147 100.944 189.147 98.1144C189.147 95.2846 186.812 92.9905 183.932 92.9905C181.051 92.9905 178.717 95.2846 178.717 98.1144C178.717 100.944 181.051 103.238 183.932 103.238Z" fill="#FF5645"/>
<path d="M200.949 103.238C203.829 103.238 206.164 100.944 206.164 98.1144C206.164 95.2846 203.829 92.9905 200.949 92.9905C198.069 92.9905 195.734 95.2846 195.734 98.1144C195.734 100.944 198.069 103.238 200.949 103.238Z" fill="#FFCB3D"/>
<path d="M218.516 103.238C221.396 103.238 223.731 100.944 223.731 98.1144C223.731 95.2846 221.396 92.9905 218.516 92.9905C215.635 92.9905 213.301 95.2846 213.301 98.1144C213.301 100.944 215.635 103.238 218.516 103.238Z" fill="#3ABF7C"/>
<path d="M452.52 547.139C453.373 548.647 454.992 549.666 456.846 549.666H579.906C582.646 549.666 584.787 547.439 584.787 544.699C584.787 541.959 582.56 539.732 579.906 539.732H460.207L418.481 427.463C417.539 424.894 414.713 423.609 412.144 424.551C409.575 425.493 408.29 428.319 409.232 430.888L452.136 546.326C452.241 546.613 452.37 546.885 452.52 547.139Z" fill="#474961"/>
</svg>
